<mxfile host="app.diagrams.net" agent="Mozilla/5.0 (Windows NT 10.0; Win64; x64) AppleWebKit/537.36 (KHTML, like Gecko) Chrome/129.0.0.0 Safari/537.36 Edg/129.0.0.0" version="24.7.17">
  <diagram name="Страница — 1" id="xNfX-wOfcC4msUlCYlpV">
    <mxGraphModel dx="1489" dy="1990" grid="1" gridSize="10" guides="1" tooltips="1" connect="1" arrows="1" fold="1" page="1" pageScale="1" pageWidth="827" pageHeight="1169" math="0" shadow="0">
      <root>
        <mxCell id="0" />
        <mxCell id="1" parent="0" />
        <mxCell id="dcikwl02XXHzqYUD03U2-1" value="" style="ellipse;whiteSpace=wrap;html=1;aspect=fixed;fillColor=#000000;" vertex="1" parent="1">
          <mxGeometry x="385" y="-630" width="40" height="40" as="geometry" />
        </mxCell>
        <mxCell id="dcikwl02XXHzqYUD03U2-39" value="" style="group" vertex="1" connectable="0" parent="1">
          <mxGeometry x="362.5" y="680" width="55" height="55" as="geometry" />
        </mxCell>
        <mxCell id="dcikwl02XXHzqYUD03U2-38" value="" style="ellipse;whiteSpace=wrap;html=1;aspect=fixed;" vertex="1" parent="dcikwl02XXHzqYUD03U2-39">
          <mxGeometry width="55" height="55" as="geometry" />
        </mxCell>
        <mxCell id="dcikwl02XXHzqYUD03U2-37" value="" style="ellipse;whiteSpace=wrap;html=1;aspect=fixed;fillColor=#000000;" vertex="1" parent="dcikwl02XXHzqYUD03U2-39">
          <mxGeometry x="7.5" y="7.5" width="40" height="40" as="geometry" />
        </mxCell>
        <mxCell id="dcikwl02XXHzqYUD03U2-42" value="" style="endArrow=classic;html=1;rounded=0;exitX=0.5;exitY=1;exitDx=0;exitDy=0;entryX=0.5;entryY=0;entryDx=0;entryDy=0;" edge="1" parent="1" source="dcikwl02XXHzqYUD03U2-1" target="dcikwl02XXHzqYUD03U2-43">
          <mxGeometry width="50" height="50" relative="1" as="geometry">
            <mxPoint x="405" y="-470" as="sourcePoint" />
            <mxPoint x="405" y="-540" as="targetPoint" />
          </mxGeometry>
        </mxCell>
        <mxCell id="dcikwl02XXHzqYUD03U2-43" value="Autorization" style="rounded=1;whiteSpace=wrap;html=1;" vertex="1" parent="1">
          <mxGeometry x="360" y="-550" width="90" height="40" as="geometry" />
        </mxCell>
        <mxCell id="dcikwl02XXHzqYUD03U2-44" value="" style="endArrow=classic;html=1;rounded=0;exitX=0.5;exitY=1;exitDx=0;exitDy=0;entryX=0.5;entryY=0;entryDx=0;entryDy=0;" edge="1" parent="1" source="dcikwl02XXHzqYUD03U2-43" target="dcikwl02XXHzqYUD03U2-81">
          <mxGeometry width="50" height="50" relative="1" as="geometry">
            <mxPoint x="195" y="-650" as="sourcePoint" />
            <mxPoint x="40" y="-540" as="targetPoint" />
          </mxGeometry>
        </mxCell>
        <mxCell id="dcikwl02XXHzqYUD03U2-47" value="Удаление данных" style="text;html=1;align=center;verticalAlign=middle;whiteSpace=wrap;rounded=0;" vertex="1" parent="1">
          <mxGeometry x="140" y="-290" width="60" height="30" as="geometry" />
        </mxCell>
        <mxCell id="dcikwl02XXHzqYUD03U2-48" value="DeleteData" style="rounded=1;whiteSpace=wrap;html=1;" vertex="1" parent="1">
          <mxGeometry x="90" y="-250" width="90" height="40" as="geometry" />
        </mxCell>
        <mxCell id="dcikwl02XXHzqYUD03U2-104" value="" style="edgeStyle=orthogonalEdgeStyle;rounded=0;orthogonalLoop=1;jettySize=auto;html=1;" edge="1" parent="1" source="dcikwl02XXHzqYUD03U2-50" target="dcikwl02XXHzqYUD03U2-51">
          <mxGeometry relative="1" as="geometry" />
        </mxCell>
        <mxCell id="dcikwl02XXHzqYUD03U2-50" value="AddData" style="rounded=1;whiteSpace=wrap;html=1;" vertex="1" parent="1">
          <mxGeometry x="650" y="-240" width="90" height="40" as="geometry" />
        </mxCell>
        <mxCell id="dcikwl02XXHzqYUD03U2-51" value="SaveData" style="rounded=1;whiteSpace=wrap;html=1;" vertex="1" parent="1">
          <mxGeometry x="650" y="-170" width="90" height="40" as="geometry" />
        </mxCell>
        <mxCell id="dcikwl02XXHzqYUD03U2-54" value="" style="rhombus;whiteSpace=wrap;html=1;" vertex="1" parent="1">
          <mxGeometry x="380" y="-380" width="50" height="40" as="geometry" />
        </mxCell>
        <mxCell id="dcikwl02XXHzqYUD03U2-57" value="ViewData" style="rounded=1;whiteSpace=wrap;html=1;" vertex="1" parent="1">
          <mxGeometry x="220" y="-250" width="90" height="40" as="geometry" />
        </mxCell>
        <mxCell id="dcikwl02XXHzqYUD03U2-58" value="Добавление данных" style="text;html=1;align=center;verticalAlign=middle;whiteSpace=wrap;rounded=0;" vertex="1" parent="1">
          <mxGeometry x="700" y="-300" width="60" height="50" as="geometry" />
        </mxCell>
        <mxCell id="dcikwl02XXHzqYUD03U2-59" value="FindData" style="rounded=1;whiteSpace=wrap;html=1;" vertex="1" parent="1">
          <mxGeometry x="500" y="-250" width="90" height="40" as="geometry" />
        </mxCell>
        <mxCell id="dcikwl02XXHzqYUD03U2-60" value="" style="endArrow=classic;html=1;rounded=0;exitX=0.5;exitY=1;exitDx=0;exitDy=0;entryX=0.5;entryY=0;entryDx=0;entryDy=0;" edge="1" parent="1" source="dcikwl02XXHzqYUD03U2-54" target="dcikwl02XXHzqYUD03U2-61">
          <mxGeometry width="50" height="50" relative="1" as="geometry">
            <mxPoint x="415" y="-320" as="sourcePoint" />
            <mxPoint x="405" y="-290" as="targetPoint" />
          </mxGeometry>
        </mxCell>
        <mxCell id="dcikwl02XXHzqYUD03U2-61" value="EditData" style="rounded=1;whiteSpace=wrap;html=1;" vertex="1" parent="1">
          <mxGeometry x="360" y="-250" width="90" height="40" as="geometry" />
        </mxCell>
        <mxCell id="dcikwl02XXHzqYUD03U2-62" value="SaveData" style="rounded=1;whiteSpace=wrap;html=1;" vertex="1" parent="1">
          <mxGeometry x="360" y="-170" width="90" height="40" as="geometry" />
        </mxCell>
        <mxCell id="dcikwl02XXHzqYUD03U2-63" value="Просмотр данных" style="text;html=1;align=center;verticalAlign=middle;whiteSpace=wrap;rounded=0;" vertex="1" parent="1">
          <mxGeometry x="270" y="-290" width="60" height="30" as="geometry" />
        </mxCell>
        <mxCell id="dcikwl02XXHzqYUD03U2-64" value="Редактирование данных" style="text;html=1;align=center;verticalAlign=middle;whiteSpace=wrap;rounded=0;" vertex="1" parent="1">
          <mxGeometry x="425" y="-290" width="60" height="30" as="geometry" />
        </mxCell>
        <mxCell id="dcikwl02XXHzqYUD03U2-65" value="Поиск данных" style="text;html=1;align=center;verticalAlign=middle;whiteSpace=wrap;rounded=0;" vertex="1" parent="1">
          <mxGeometry x="560" y="-290" width="60" height="30" as="geometry" />
        </mxCell>
        <mxCell id="dcikwl02XXHzqYUD03U2-66" value="" style="endArrow=classic;html=1;rounded=0;exitX=0.5;exitY=1;exitDx=0;exitDy=0;entryX=0.5;entryY=0;entryDx=0;entryDy=0;" edge="1" parent="1" source="dcikwl02XXHzqYUD03U2-61" target="dcikwl02XXHzqYUD03U2-62">
          <mxGeometry width="50" height="50" relative="1" as="geometry">
            <mxPoint x="415" y="-320" as="sourcePoint" />
            <mxPoint x="555" y="-280" as="targetPoint" />
          </mxGeometry>
        </mxCell>
        <mxCell id="dcikwl02XXHzqYUD03U2-80" value="" style="group" vertex="1" connectable="0" parent="1">
          <mxGeometry x="370" y="120" width="60" height="60" as="geometry" />
        </mxCell>
        <mxCell id="dcikwl02XXHzqYUD03U2-79" value="" style="ellipse;whiteSpace=wrap;html=1;aspect=fixed;" vertex="1" parent="dcikwl02XXHzqYUD03U2-80">
          <mxGeometry width="60" height="60" as="geometry" />
        </mxCell>
        <mxCell id="dcikwl02XXHzqYUD03U2-78" value="" style="ellipse;whiteSpace=wrap;html=1;aspect=fixed;fillColor=#000000;" vertex="1" parent="dcikwl02XXHzqYUD03U2-80">
          <mxGeometry x="10" y="10" width="40" height="40" as="geometry" />
        </mxCell>
        <mxCell id="dcikwl02XXHzqYUD03U2-81" value="ChangeTable" style="rounded=1;whiteSpace=wrap;html=1;" vertex="1" parent="1">
          <mxGeometry x="360" y="-460" width="90" height="40" as="geometry" />
        </mxCell>
        <mxCell id="dcikwl02XXHzqYUD03U2-82" value="" style="endArrow=classic;html=1;rounded=0;exitX=0.5;exitY=1;exitDx=0;exitDy=0;entryX=0.5;entryY=0;entryDx=0;entryDy=0;" edge="1" parent="1" source="dcikwl02XXHzqYUD03U2-81" target="dcikwl02XXHzqYUD03U2-54">
          <mxGeometry width="50" height="50" relative="1" as="geometry">
            <mxPoint x="120" y="-310" as="sourcePoint" />
            <mxPoint x="405" y="-400" as="targetPoint" />
          </mxGeometry>
        </mxCell>
        <mxCell id="dcikwl02XXHzqYUD03U2-83" value="" style="endArrow=none;html=1;rounded=0;strokeWidth=2;" edge="1" parent="1">
          <mxGeometry width="50" height="50" relative="1" as="geometry">
            <mxPoint x="60" y="-310" as="sourcePoint" />
            <mxPoint x="780" y="-310" as="targetPoint" />
          </mxGeometry>
        </mxCell>
        <mxCell id="dcikwl02XXHzqYUD03U2-84" value="" style="endArrow=classic;html=1;rounded=0;entryX=0.5;entryY=0;entryDx=0;entryDy=0;" edge="1" parent="1" target="dcikwl02XXHzqYUD03U2-57">
          <mxGeometry width="50" height="50" relative="1" as="geometry">
            <mxPoint x="265" y="-310" as="sourcePoint" />
            <mxPoint x="280" y="-150" as="targetPoint" />
          </mxGeometry>
        </mxCell>
        <mxCell id="dcikwl02XXHzqYUD03U2-86" value="" style="endArrow=classic;html=1;rounded=0;entryX=0.5;entryY=0;entryDx=0;entryDy=0;" edge="1" parent="1" target="dcikwl02XXHzqYUD03U2-59">
          <mxGeometry width="50" height="50" relative="1" as="geometry">
            <mxPoint x="545" y="-310" as="sourcePoint" />
            <mxPoint x="275" y="-240" as="targetPoint" />
          </mxGeometry>
        </mxCell>
        <mxCell id="dcikwl02XXHzqYUD03U2-87" value="" style="endArrow=none;html=1;rounded=0;strokeWidth=2;" edge="1" parent="1">
          <mxGeometry width="50" height="50" relative="1" as="geometry">
            <mxPoint x="60" y="-90" as="sourcePoint" />
            <mxPoint x="780" y="-90" as="targetPoint" />
          </mxGeometry>
        </mxCell>
        <mxCell id="dcikwl02XXHzqYUD03U2-88" value="" style="endArrow=classic;html=1;rounded=0;exitX=0.5;exitY=1;exitDx=0;exitDy=0;" edge="1" parent="1" source="dcikwl02XXHzqYUD03U2-57">
          <mxGeometry width="50" height="50" relative="1" as="geometry">
            <mxPoint x="120" y="-130" as="sourcePoint" />
            <mxPoint x="265" y="-90" as="targetPoint" />
          </mxGeometry>
        </mxCell>
        <mxCell id="dcikwl02XXHzqYUD03U2-90" value="" style="endArrow=classic;html=1;rounded=0;exitX=0.5;exitY=1;exitDx=0;exitDy=0;" edge="1" parent="1" source="dcikwl02XXHzqYUD03U2-59">
          <mxGeometry width="50" height="50" relative="1" as="geometry">
            <mxPoint x="275" y="-200" as="sourcePoint" />
            <mxPoint x="545" y="-90" as="targetPoint" />
          </mxGeometry>
        </mxCell>
        <mxCell id="dcikwl02XXHzqYUD03U2-91" value="" style="endArrow=classic;html=1;rounded=0;exitX=0.5;exitY=1;exitDx=0;exitDy=0;" edge="1" parent="1" source="dcikwl02XXHzqYUD03U2-62">
          <mxGeometry width="50" height="50" relative="1" as="geometry">
            <mxPoint x="285" y="-190" as="sourcePoint" />
            <mxPoint x="405" y="-90" as="targetPoint" />
          </mxGeometry>
        </mxCell>
        <mxCell id="dcikwl02XXHzqYUD03U2-95" value="" style="endArrow=classic;html=1;rounded=0;entryX=0.5;entryY=0;entryDx=0;entryDy=0;" edge="1" parent="1" target="dcikwl02XXHzqYUD03U2-48">
          <mxGeometry width="50" height="50" relative="1" as="geometry">
            <mxPoint x="135" y="-310" as="sourcePoint" />
            <mxPoint x="275" y="-240" as="targetPoint" />
          </mxGeometry>
        </mxCell>
        <mxCell id="dcikwl02XXHzqYUD03U2-97" value="" style="endArrow=classic;html=1;rounded=0;entryX=0.5;entryY=0;entryDx=0;entryDy=0;" edge="1" parent="1" target="dcikwl02XXHzqYUD03U2-50">
          <mxGeometry width="50" height="50" relative="1" as="geometry">
            <mxPoint x="695" y="-310" as="sourcePoint" />
            <mxPoint x="415" y="-80" as="targetPoint" />
          </mxGeometry>
        </mxCell>
        <mxCell id="dcikwl02XXHzqYUD03U2-99" value="SaveData" style="rounded=1;whiteSpace=wrap;html=1;" vertex="1" parent="1">
          <mxGeometry x="90" y="-170" width="90" height="40" as="geometry" />
        </mxCell>
        <mxCell id="dcikwl02XXHzqYUD03U2-100" value="" style="endArrow=classic;html=1;rounded=0;entryX=0.5;entryY=0;entryDx=0;entryDy=0;exitX=0.5;exitY=1;exitDx=0;exitDy=0;" edge="1" parent="1" source="dcikwl02XXHzqYUD03U2-48" target="dcikwl02XXHzqYUD03U2-99">
          <mxGeometry width="50" height="50" relative="1" as="geometry">
            <mxPoint x="145" y="-300" as="sourcePoint" />
            <mxPoint x="145" y="-240" as="targetPoint" />
          </mxGeometry>
        </mxCell>
        <mxCell id="dcikwl02XXHzqYUD03U2-101" value="" style="endArrow=classic;html=1;rounded=0;exitX=0.5;exitY=1;exitDx=0;exitDy=0;" edge="1" parent="1" source="dcikwl02XXHzqYUD03U2-99">
          <mxGeometry width="50" height="50" relative="1" as="geometry">
            <mxPoint x="155" y="-290" as="sourcePoint" />
            <mxPoint x="135" y="-90" as="targetPoint" />
          </mxGeometry>
        </mxCell>
        <mxCell id="dcikwl02XXHzqYUD03U2-102" value="" style="endArrow=classic;html=1;rounded=0;exitX=0.5;exitY=1;exitDx=0;exitDy=0;entryX=0.5;entryY=0;entryDx=0;entryDy=0;" edge="1" parent="1" source="dcikwl02XXHzqYUD03U2-50" target="dcikwl02XXHzqYUD03U2-51">
          <mxGeometry width="50" height="50" relative="1" as="geometry">
            <mxPoint x="555" y="-200" as="sourcePoint" />
            <mxPoint x="555" y="-80" as="targetPoint" />
          </mxGeometry>
        </mxCell>
        <mxCell id="dcikwl02XXHzqYUD03U2-103" value="" style="endArrow=classic;html=1;rounded=0;exitX=0.5;exitY=1;exitDx=0;exitDy=0;" edge="1" parent="1" source="dcikwl02XXHzqYUD03U2-51">
          <mxGeometry width="50" height="50" relative="1" as="geometry">
            <mxPoint x="705" y="-200" as="sourcePoint" />
            <mxPoint x="695" y="-90" as="targetPoint" />
          </mxGeometry>
        </mxCell>
        <mxCell id="dcikwl02XXHzqYUD03U2-106" value="Смена таблицы" style="text;html=1;align=center;verticalAlign=middle;whiteSpace=wrap;rounded=0;" vertex="1" parent="1">
          <mxGeometry x="430" y="-60" width="60" height="30" as="geometry" />
        </mxCell>
        <mxCell id="dcikwl02XXHzqYUD03U2-107" value="" style="endArrow=classic;html=1;rounded=0;entryX=0.5;entryY=0;entryDx=0;entryDy=0;" edge="1" parent="1" target="dcikwl02XXHzqYUD03U2-108">
          <mxGeometry width="50" height="50" relative="1" as="geometry">
            <mxPoint x="400" y="-90" as="sourcePoint" />
            <mxPoint x="400" y="-30" as="targetPoint" />
          </mxGeometry>
        </mxCell>
        <mxCell id="dcikwl02XXHzqYUD03U2-108" value="" style="rhombus;whiteSpace=wrap;html=1;" vertex="1" parent="1">
          <mxGeometry x="375" y="-40" width="50" height="40" as="geometry" />
        </mxCell>
        <mxCell id="dcikwl02XXHzqYUD03U2-110" value="" style="endArrow=classic;html=1;rounded=0;exitX=1;exitY=0.5;exitDx=0;exitDy=0;entryX=1;entryY=0.5;entryDx=0;entryDy=0;edgeStyle=orthogonalEdgeStyle;" edge="1" parent="1" source="dcikwl02XXHzqYUD03U2-108" target="dcikwl02XXHzqYUD03U2-81">
          <mxGeometry width="50" height="50" relative="1" as="geometry">
            <mxPoint x="450" y="40" as="sourcePoint" />
            <mxPoint x="500" y="-10" as="targetPoint" />
            <Array as="points">
              <mxPoint x="800" y="-20" />
              <mxPoint x="800" y="-440" />
            </Array>
          </mxGeometry>
        </mxCell>
        <mxCell id="dcikwl02XXHzqYUD03U2-112" value="DataStorage" style="rounded=1;whiteSpace=wrap;html=1;" vertex="1" parent="1">
          <mxGeometry x="355" y="40" width="90" height="40" as="geometry" />
        </mxCell>
        <mxCell id="dcikwl02XXHzqYUD03U2-113" value="" style="endArrow=classic;html=1;rounded=0;entryX=0.5;entryY=0;entryDx=0;entryDy=0;exitX=0.5;exitY=1;exitDx=0;exitDy=0;" edge="1" parent="1" source="dcikwl02XXHzqYUD03U2-108" target="dcikwl02XXHzqYUD03U2-112">
          <mxGeometry width="50" height="50" relative="1" as="geometry">
            <mxPoint x="410" y="-80" as="sourcePoint" />
            <mxPoint x="410" y="-30" as="targetPoint" />
          </mxGeometry>
        </mxCell>
        <mxCell id="dcikwl02XXHzqYUD03U2-114" value="" style="endArrow=classic;html=1;rounded=0;entryX=0.5;entryY=0;entryDx=0;entryDy=0;exitX=0.5;exitY=1;exitDx=0;exitDy=0;" edge="1" parent="1" source="dcikwl02XXHzqYUD03U2-112" target="dcikwl02XXHzqYUD03U2-79">
          <mxGeometry width="50" height="50" relative="1" as="geometry">
            <mxPoint x="420" y="-70" as="sourcePoint" />
            <mxPoint x="420" y="-20" as="targetPoint" />
          </mxGeometry>
        </mxCell>
        <mxCell id="dcikwl02XXHzqYUD03U2-115" value="Хранение данных" style="text;html=1;align=center;verticalAlign=middle;whiteSpace=wrap;rounded=0;" vertex="1" parent="1">
          <mxGeometry x="417.5" width="60" height="30" as="geometry" />
        </mxCell>
      </root>
    </mxGraphModel>
  </diagram>
</mxfile>
